<?xml version="1.0" encoding="UTF-8"?>
<svg id="a" data-name="Слой 1" xmlns="http://www.w3.org/2000/svg" viewBox="0 0 24 24">
  <defs>
    <style>
      .b {
        stroke-linejoin: round;
      }

      .b, .c {
        fill: none;
        stroke: #000;
        stroke-linecap: square;
        stroke-width: 1.2px;
      }

      .c {
        stroke-miterlimit: 10;
      }
    </style>
  </defs>
  <path class="c" d="M11.89,10.35h.21c2.65,0,4.8,2.15,4.8,4.8v2.8c0,1.32-1.08,2.4-2.4,2.4h-5.01c-1.32,0-2.4-1.08-2.4-2.4v-2.8c0-2.65,2.15-4.8,4.8-4.8Z"/>
  <path class="b" d="M18.85,18.48h.72c.9,0,1.64-.75,1.64-1.67v-1.67c0-1.84-1.46-3.33-3.27-3.33h0"/>
  <path class="b" d="M5.15,18.48h-.72c-.9,0-1.64-.75-1.64-1.67v-1.67c0-1.84,1.46-3.33,3.27-3.33h0"/>
  <circle class="c" cx="12" cy="6.15" r="2.5"/>
  <circle class="c" cx="18" cy="7.95" r="2"/>
  <circle class="c" cx="6" cy="7.95" r="2"/>
</svg>